# xmcd CD database file
#
# Track frame offsets:
#	183
#	11528
#	25183
#	39733
#	53233
#	71870
#	83908
#	98008
#	110145
#	126953
#	138278
#	155278
#	169663
#	180933
#	192793
#	208933
#
# Disc length: 2927 seconds
#
# Revision: 0
# Processed by: cddbd v1.4PL0 Copyright (c) Steve Scherf et al.
# Submitted via: CDex 1.50beta8
#
DISCID=d80b6d10
DTITLE=Freddy Quinn - Its Country Time
DYEAR=1987
DGENRE=Country
TTITLE0=Older man make better lovers
TTITLE1=Oh lonesome me
TTITLE2=Two places at once
TTITLE3=Its country time
TTITLE4=Yesterday memories
TTITLE5=Tennessee teardrops 
TTITLE6=take me home country roads
TTITLE7=Old smoky
TTITLE8=Trains come and go
TTITLE9=Jambalaja
TTITLE10=Help me make it trough the night
TTITLE11=Look what love has done
TTITLE12=Some broken hearts never mend
TTITLE13=High rollin trucker
TTITLE14=The wild side of life
TTITLE15=Tom dooley
EXTD=YEAR: 1987
EXTT0=
EXTT1=
EXTT2=
EXTT3=
EXTT4=
EXTT5=
EXTT6=
EXTT7=
EXTT8=
EXTT9=
EXTT10=
EXTT11=
EXTT12=
EXTT13=
EXTT14=
EXTT15=
PLAYORDER=
